<?xml version="1.0" encoding="utf-8"?>
<svg viewBox="0 0 280 85" xmlns="http://www.w3.org/2000/svg">
  <g transform="matrix(0.1, 0, 0, -0.1, 0, 85)" fill="#000000" stroke="none">
    <path d="M251 717 c-76 -24 -122 -102 -107 -181 13 -68 67 -109 208 -155 62 -21 108 -56 108 -82 0 -5 -13 -23 -28 -41 -24 -26 -36 -31 -73 -31 -45 0 -115 29 -138 57 -8 9 -21 16 -29 16 -19 0 -72 -49 -72 -66 0 -21 80 -82 128 -98 53 -19 140 -21 197 -5 51 14 109 73 125 126 31 104 -22 172 -176 223 -130 44 -156 71 -115 121 28 35 103 34 159 -3 51 -34 62 -35 90 -5 28 30 28 48 0 75 -60 56 -186 78 -277 49z" style="fill: rgb(0, 94, 207);"/>
    <path d="M1108 720 c-72 -22 -118 -82 -118 -155 0 -81 49 -127 185 -175 106 -37 127 -53 123 -94 -4 -39 -48 -71 -96 -70 -40 1 -110 32 -131 58 -8 9 -21 16 -29 16 -19 0 -72 -49 -72 -66 0 -21 80 -82 128 -98 55 -19 139 -21 195 -4 85 25 148 121 133 201 -13 70 -67 110 -210 157 -102 33 -131 74 -85 116 33 30 106 26 155 -8 49 -34 64 -35 92 -5 28 30 28 48 0 75 -58 53 -184 78 -270 52z" style="fill: rgb(0, 94, 207);"/>
    <path d="M717 713 c-10 -9 -8 -566 2 -581 5 -9 25 -12 57 -10 l49 3 3 298 2 297 -53 0 c-30 0 -57 -3 -60 -7z" style="fill: rgb(0, 94, 207);"/>
    <path d="M1560 615 l0 -106 58 3 57 3 3 48 3 47 70 0 c98 0 153 -29 190 -102 45 -88 6 -208 -83 -254 -15 -8 -61 -17 -102 -21 l-75 -6 -3 54 -3 54 -58 3 -58 3 3 -108 3 -108 135 0 c160 0 209 14 281 82 129 121 126 325 -7 442 -67 59 -114 71 -276 71 l-138 0 0 -105z" style="fill: rgb(0, 94, 207);"/>
    <path d="M2170 712 c0 -4 43 -81 95 -170 l95 -164 0 -116 c0 -64 4 -123 9 -130 5 -9 25 -12 57 -10 l49 3 3 122 3 123 99 171 c55 94 100 173 100 175 0 2 -29 4 -64 4 l-65 0 -64 -121 -64 -121 -64 121 -64 121 -62 0 c-35 0 -63 -3 -63 -8z" style="fill: rgb(0, 94, 207);"/>
  </g>
</svg>